<?xml version="1.0" encoding="UTF-8"?>
<svg id="uuid-b0942c8f-e872-4cf2-81a5-39e2668cbdd6" data-name="Layer 1" xmlns="http://www.w3.org/2000/svg" width="595.276" height="163.12" viewBox="0 0 595.276 163.12">
  <defs>
    <style>
      .uuid-e49775aa-757e-462b-a9f2-8dc2b5dca261 {
        fill: none;
        stroke: #000;
        stroke-miterlimit: 10;
      }

      .uuid-ab8d8c14-9e62-4daf-84ff-37821200d62e, .uuid-2f5512fe-e0e8-46f2-9c8e-cf49d867b1e6, .uuid-a03b05eb-8091-4581-94d2-50aabbf4c80f, .uuid-e4f9335e-9f90-4ff6-9809-75462ad379f6, .uuid-d577c14d-aeea-4dde-b3e4-a214bebb251f {
        stroke-width: 0px;
      }

      .uuid-2f5512fe-e0e8-46f2-9c8e-cf49d867b1e6 {
        fill: #a1c2e7;
      }

      .uuid-a03b05eb-8091-4581-94d2-50aabbf4c80f {
        fill: #dbe8f5;
      }

      .uuid-e4f9335e-9f90-4ff6-9809-75462ad379f6 {
        fill: #fff;
      }

      .uuid-d577c14d-aeea-4dde-b3e4-a214bebb251f {
        fill: #06c;
      }
    </style>
  </defs>
  <rect class="uuid-a03b05eb-8091-4581-94d2-50aabbf4c80f" x="27.448" y="20.09" width="133.681" height="39.905"/>
  <g>
    <path class="uuid-ab8d8c14-9e62-4daf-84ff-37821200d62e" d="m54.978,42.623c-.76-.07-1.489-.35-2.139-.819l.55-.83c.569.41,1.089.629,1.589.7v-1.969c-1.489-.35-2.069-.949-2.069-1.849,0-1.059.8-1.779,2.069-1.859v-.85h.65v.87c.709.08,1.389.36,1.929.79l-.57.8c-.43-.34-.889-.55-1.359-.64v1.849c1.489.379,2.108.909,2.108,1.889,0,1.069-.839,1.819-2.108,1.919v.859h-.65v-.859Zm0-3.938v-1.759c-.629.05-1.029.38-1.029.85,0,.41.24.68,1.029.909Zm.65,1.149v1.859c.62-.08,1.029-.419,1.029-.899,0-.47-.29-.75-1.029-.959Z"/>
    <path class="uuid-ab8d8c14-9e62-4daf-84ff-37821200d62e" d="m64.639,37.805h1.229l1.449,3.688,1.439-3.688h1.179l-2.109,5.007h-1.089l-2.099-5.007Z"/>
    <path class="uuid-ab8d8c14-9e62-4daf-84ff-37821200d62e" d="m72.688,41.213v-2.509h-1.799v-.899h2.928v3.288c0,.6.28.85.87.85.32,0,.63-.06,1.02-.21v.95c-.31.13-.77.23-1.169.23-1.209,0-1.849-.57-1.849-1.699Zm-.24-5.197c0-.439.36-.799.81-.799.44,0,.8.36.8.799s-.36.81-.8.81c-.45,0-.81-.37-.81-.81Z"/>
    <path class="uuid-ab8d8c14-9e62-4daf-84ff-37821200d62e" d="m76.799,37.805h.969v.43c.24-.34.52-.5.88-.5.43,0,.779.22.969.6.27-.41.61-.6,1.06-.6.66,0,1.119.53,1.119,1.299v3.778h-.959v-3.478c0-.47-.21-.77-.58-.77-.18,0-.34.06-.49.27.02.08.02.16.02.25v3.728h-.959v-3.478c0-.47-.22-.77-.59-.77-.17,0-.32.05-.47.24v4.008h-.969v-5.007Z"/>
    <path class="uuid-ab8d8c14-9e62-4daf-84ff-37821200d62e" d="m90.328,38.705h-1.599v-.899h1.599v-.759c0-1.18.689-1.779,2.029-1.779.39,0,.85.08,1.229.2v.979c-.5-.17-.81-.209-1.199-.209-.629,0-.919.26-.919.949v.62h2.119v.899h-2.119v4.108h-1.139v-4.108Z"/>
    <path class="uuid-ab8d8c14-9e62-4daf-84ff-37821200d62e" d="m96.688,41.213v-2.509h-1.799v-.899h2.928v3.288c0,.6.28.85.87.85.32,0,.63-.06,1.02-.21v.95c-.31.13-.77.23-1.169.23-1.209,0-1.849-.57-1.849-1.699Zm-.24-5.197c0-.439.36-.799.81-.799.44,0,.8.36.8.799s-.36.81-.8.81c-.45,0-.81-.37-.81-.81Z"/>
    <path class="uuid-ab8d8c14-9e62-4daf-84ff-37821200d62e" d="m102.618,41.213v-4.777h-1.799v-.89h2.928v5.547c0,.6.28.85.88.85.31,0,.619-.06,1.009-.21v.95c-.31.13-.77.23-1.169.23-1.209,0-1.849-.57-1.849-1.699Z"/>
    <path class="uuid-ab8d8c14-9e62-4daf-84ff-37821200d62e" d="m106.818,40.314c0-1.469,1.07-2.589,2.479-2.589,1.459,0,2.508,1.09,2.508,2.589v.27h-3.878c.11.81.74,1.399,1.55,1.399.52,0,.979-.21,1.279-.57l.749.67c-.579.58-1.259.83-2.089.83-1.459,0-2.599-1.129-2.599-2.599Zm3.908-.44c-.13-.729-.68-1.229-1.409-1.229-.699,0-1.229.489-1.379,1.229h2.788Z"/>
    <path class="uuid-ab8d8c14-9e62-4daf-84ff-37821200d62e" d="m113.098,37.805h1.129v.75c.38-.549.91-.83,1.54-.83,1.029,0,1.749.73,1.749,1.789v3.298h-1.14v-2.979c0-.729-.43-1.199-1.1-1.199-.43,0-.789.19-1.05.55v3.628h-1.129v-5.007Z"/>
    <path class="uuid-ab8d8c14-9e62-4daf-84ff-37821200d62e" d="m118.909,41.383c0-.91.739-1.479,1.938-1.479.479,0,.93.1,1.379.32v-.5c0-.709-.39-1.06-1.179-1.06-.44,0-.91.12-1.51.43l-.43-.82c.77-.38,1.47-.55,2.159-.55,1.319,0,2.079.68,2.079,1.879v3.208h-1.12v-.53c-.449.43-.929.62-1.519.62-1.06,0-1.799-.62-1.799-1.519Zm2.108.729c.46,0,.869-.14,1.209-.439v-.79c-.359-.18-.749-.25-1.179-.25-.67,0-1.08.27-1.08.72,0,.47.41.759,1.05.759Z"/>
    <path class="uuid-ab8d8c14-9e62-4daf-84ff-37821200d62e" d="m124.798,37.805h.97v.43c.239-.34.52-.5.879-.5.43,0,.78.22.97.6.27-.41.609-.6,1.06-.6.659,0,1.119.53,1.119,1.299v3.778h-.959v-3.478c0-.47-.21-.77-.58-.77-.18,0-.34.06-.489.27.02.08.02.16.02.25v3.728h-.959v-3.478c0-.47-.221-.77-.59-.77-.17,0-.32.05-.47.24v4.008h-.97v-5.007Z"/>
    <path class="uuid-ab8d8c14-9e62-4daf-84ff-37821200d62e" d="m130.818,40.314c0-1.469,1.07-2.589,2.479-2.589,1.459,0,2.508,1.09,2.508,2.589v.27h-3.878c.11.81.74,1.399,1.55,1.399.52,0,.979-.21,1.279-.57l.749.67c-.579.58-1.259.83-2.089.83-1.459,0-2.599-1.129-2.599-2.599Zm3.908-.44c-.13-.729-.68-1.229-1.409-1.229-.699,0-1.229.489-1.379,1.229h2.788Z"/>
  </g>
  <rect class="uuid-d577c14d-aeea-4dde-b3e4-a214bebb251f" x="230.797" y="20.09" width="133.681" height="39.905"/>
  <g>
    <path class="uuid-e4f9335e-9f90-4ff6-9809-75462ad379f6" d="m261.998,39.314c0-2.319,1.229-3.608,2.718-3.608,1.239,0,2.219.83,2.569,2.259l-1.08.31c-.2-.979-.79-1.489-1.469-1.489-.859,0-1.529.85-1.529,2.529s.669,2.529,1.529,2.529c.68,0,1.27-.51,1.469-1.489l1.08.31c-.35,1.429-1.33,2.259-2.569,2.259-1.489,0-2.718-1.289-2.718-3.608Z"/>
    <path class="uuid-e4f9335e-9f90-4ff6-9809-75462ad379f6" d="m268.128,40.324c0-1.479,1.08-2.599,2.509-2.599s2.508,1.12,2.508,2.599c0,1.469-1.079,2.589-2.508,2.589s-2.509-1.12-2.509-2.589Zm3.918,0c0-.939-.6-1.629-1.409-1.629s-1.409.689-1.409,1.629.6,1.619,1.409,1.619,1.409-.68,1.409-1.619Z"/>
    <path class="uuid-e4f9335e-9f90-4ff6-9809-75462ad379f6" d="m274.148,37.805h.969v.43c.24-.34.52-.5.88-.5.43,0,.779.22.969.6.27-.41.61-.6,1.06-.6.66,0,1.119.53,1.119,1.299v3.778h-.959v-3.478c0-.47-.21-.77-.58-.77-.18,0-.34.06-.49.27.02.08.02.16.02.25v3.728h-.959v-3.478c0-.47-.22-.77-.59-.77-.17,0-.32.05-.47.24v4.008h-.969v-5.007Z"/>
    <path class="uuid-e4f9335e-9f90-4ff6-9809-75462ad379f6" d="m280.147,37.805h.969v.43c.24-.34.52-.5.88-.5.43,0,.779.22.969.6.27-.41.61-.6,1.06-.6.66,0,1.119.53,1.119,1.299v3.778h-.959v-3.478c0-.47-.21-.77-.58-.77-.18,0-.34.06-.49.27.02.08.02.16.02.25v3.728h-.959v-3.478c0-.47-.22-.77-.59-.77-.17,0-.32.05-.47.24v4.008h-.969v-5.007Z"/>
    <path class="uuid-e4f9335e-9f90-4ff6-9809-75462ad379f6" d="m286.257,41.383c0-.91.74-1.479,1.939-1.479.48,0,.93.1,1.379.32v-.5c0-.709-.39-1.06-1.18-1.06-.439,0-.909.12-1.509.43l-.43-.82c.77-.38,1.469-.55,2.159-.55,1.319,0,2.079.68,2.079,1.879v3.208h-1.119v-.53c-.45.43-.93.62-1.52.62-1.059,0-1.799-.62-1.799-1.519Zm2.109.729c.46,0,.87-.14,1.209-.439v-.79c-.36-.18-.75-.25-1.18-.25-.669,0-1.079.27-1.079.72,0,.47.41.759,1.049.759Z"/>
    <path class="uuid-e4f9335e-9f90-4ff6-9809-75462ad379f6" d="m292.447,37.805h1.129v.75c.38-.549.91-.83,1.539-.83,1.029,0,1.749.73,1.749,1.789v3.298h-1.139v-2.979c0-.729-.43-1.199-1.1-1.199-.43,0-.79.19-1.049.55v3.628h-1.129v-5.007Z"/>
    <path class="uuid-e4f9335e-9f90-4ff6-9809-75462ad379f6" d="m298.078,40.314c0-1.449,1.009-2.579,2.289-2.579.54,0,1.01.22,1.369.609v-2.708l1.13-.189v7.366h-1.1v-.58c-.35.42-.85.649-1.419.649-1.27,0-2.269-1.119-2.269-2.568Zm3.658,1.139v-2.279c-.27-.31-.68-.51-1.119-.51-.84,0-1.419.69-1.419,1.649s.579,1.639,1.419,1.639c.45,0,.85-.18,1.119-.5Z"/>
    <path class="uuid-e4f9335e-9f90-4ff6-9809-75462ad379f6" d="m310.147,37.805h.97v.43c.239-.34.52-.5.879-.5.43,0,.78.22.97.6.27-.41.609-.6,1.06-.6.659,0,1.119.53,1.119,1.299v3.778h-.959v-3.478c0-.47-.21-.77-.58-.77-.18,0-.34.06-.489.27.02.08.02.16.02.25v3.728h-.959v-3.478c0-.47-.221-.77-.59-.77-.17,0-.32.05-.47.24v4.008h-.97v-5.007Z"/>
    <path class="uuid-e4f9335e-9f90-4ff6-9809-75462ad379f6" d="m316.127,40.324c0-1.479,1.08-2.599,2.509-2.599s2.509,1.12,2.509,2.599c0,1.469-1.079,2.589-2.509,2.589s-2.509-1.12-2.509-2.589Zm3.918,0c0-.939-.6-1.629-1.409-1.629s-1.409.689-1.409,1.629.6,1.619,1.409,1.619,1.409-.68,1.409-1.619Z"/>
    <path class="uuid-e4f9335e-9f90-4ff6-9809-75462ad379f6" d="m322.077,40.314c0-1.449,1.01-2.579,2.289-2.579.54,0,1.01.22,1.369.609v-2.708l1.13-.189v7.366h-1.1v-.58c-.35.42-.85.649-1.419.649-1.27,0-2.27-1.119-2.27-2.568Zm3.658,1.139v-2.279c-.27-.31-.68-.51-1.119-.51-.84,0-1.419.69-1.419,1.649s.579,1.639,1.419,1.639c.449,0,.85-.18,1.119-.5Z"/>
    <path class="uuid-e4f9335e-9f90-4ff6-9809-75462ad379f6" d="m328.167,40.314c0-1.469,1.07-2.589,2.479-2.589,1.459,0,2.508,1.09,2.508,2.589v.27h-3.878c.11.81.74,1.399,1.55,1.399.52,0,.979-.21,1.279-.57l.749.67c-.579.58-1.259.83-2.089.83-1.459,0-2.599-1.129-2.599-2.599Zm3.908-.44c-.13-.729-.68-1.229-1.409-1.229-.699,0-1.229.489-1.379,1.229h2.788Z"/>
  </g>
  <g>
    <path class="uuid-ab8d8c14-9e62-4daf-84ff-37821200d62e" d="m378.103,31.399l.52-.704c.72.592,1.239.815,1.888.815.735,0,1.247-.376,1.247-.896,0-.456-.271-.672-1.016-.8l-1.031-.176c-.968-.176-1.439-.655-1.439-1.423,0-1.016.808-1.688,2.063-1.688.839,0,1.606.248,2.246.72l-.487.72c-.56-.424-1.159-.647-1.791-.647-.672,0-1.119.344-1.119.799,0,.408.256.616.863.711l.999.168c1.128.2,1.655.696,1.655,1.543,0,1.031-.911,1.759-2.247,1.759-.879,0-1.639-.304-2.351-.903Z"/>
    <path class="uuid-ab8d8c14-9e62-4daf-84ff-37821200d62e" d="m383.479,31.063c0-.72.592-1.175,1.535-1.175.376,0,.728.08,1.079.256v-.448c0-.528-.304-.8-.919-.8-.336,0-.704.096-1.168.312l-.319-.656c.6-.272,1.127-.408,1.663-.408,1.047,0,1.639.528,1.639,1.455v2.615h-.896v-.416c-.344.335-.728.487-1.191.487-.839,0-1.423-.503-1.423-1.223Zm1.671.583c.36,0,.672-.104.943-.335v-.648c-.287-.136-.575-.192-.919-.192-.52,0-.848.216-.848.576,0,.368.319.6.823.6Z"/>
    <path class="uuid-ab8d8c14-9e62-4daf-84ff-37821200d62e" d="m387.438,28.209h.983l1.12,2.911,1.111-2.911h.943l-1.647,4.006h-.879l-1.632-4.006Z"/>
    <path class="uuid-ab8d8c14-9e62-4daf-84ff-37821200d62e" d="m391.942,30.216c0-1.175.848-2.071,1.951-2.071,1.095,0,1.895.872,1.895,2.071v.216h-2.958c.088.648.575,1.12,1.199,1.12.376,0,.728-.144.951-.376l.592.536c-.487.408-.976.584-1.583.584-1.151,0-2.047-.904-2.047-2.079Zm2.99-.344c-.096-.583-.512-.991-1.047-.991-.544,0-.944.392-1.048.991h2.095Z"/>
    <path class="uuid-ab8d8c14-9e62-4daf-84ff-37821200d62e" d="m398.837,26.618h.88l-3.206,7.268h-.872l3.198-7.268Z"/>
    <path class="uuid-ab8d8c14-9e62-4daf-84ff-37821200d62e" d="m404.228,31.983c-.384.208-.815.32-1.287.32-1.583,0-2.83-1.271-2.83-2.886s1.247-2.887,2.83-2.887,2.83,1.271,2.83,2.887c0,.823-.327,1.567-.863,2.087l.624.759-.872.248-.432-.528Zm-.575-.72l-.703-.855.871-.248.504.607c.287-.352.463-.815.463-1.351,0-1.151-.799-2.023-1.847-2.023s-1.854.872-1.854,2.023.808,2.023,1.854,2.023c.256,0,.504-.064.712-.176Z"/>
    <path class="uuid-ab8d8c14-9e62-4daf-84ff-37821200d62e" d="m406.718,30.848v-2.639h.912v2.375c0,.592.344.968.879.968.36,0,.664-.16.872-.48v-2.862h.903v4.006h-.903v-.647c-.304.472-.735.711-1.271.711-.815,0-1.392-.592-1.392-1.431Z"/>
    <path class="uuid-ab8d8c14-9e62-4daf-84ff-37821200d62e" d="m411.294,26.842c0-.304.248-.56.561-.56.304,0,.56.256.56.56s-.256.552-.56.552c-.312,0-.561-.248-.561-.552Zm.104,1.367h.903v4.006h-.903v-4.006Z"/>
    <path class="uuid-ab8d8c14-9e62-4daf-84ff-37821200d62e" d="m413.918,31.175v-2.247h-.8v-.72h.8v-1.104l.903-.192v1.295h1.111v.72h-1.111v2.047c0,.392.152.543.56.543.176,0,.304-.024.544-.096v.76c-.232.072-.536.112-.775.112-.808,0-1.231-.384-1.231-1.12Z"/>
  </g>
  <g>
    <path class="uuid-ab8d8c14-9e62-4daf-84ff-37821200d62e" d="m322.051,71.603h4.006v.816h-3.046v1.559h2.127v.799h-2.127v1.607h3.078v.815h-4.038v-5.597Z"/>
    <path class="uuid-ab8d8c14-9e62-4daf-84ff-37821200d62e" d="m326.707,76.736l.424-.6c.528.328.88.456,1.288.456.479,0,.807-.224.807-.543,0-.248-.167-.376-.56-.456l-.703-.12c-.784-.144-1.159-.504-1.159-1.104,0-.751.615-1.239,1.551-1.239.56,0,1.063.16,1.575.48l-.424.6c-.408-.264-.8-.384-1.207-.384-.416,0-.688.176-.688.463,0,.256.144.368.56.44l.711.136c.8.144,1.184.512,1.184,1.111,0,.735-.703,1.303-1.639,1.303-.688,0-1.296-.192-1.72-.544Z"/>
    <path class="uuid-ab8d8c14-9e62-4daf-84ff-37821200d62e" d="m330.755,75.201c0-1.159.88-2.071,2.022-2.071.624,0,1.2.248,1.6.68l-.56.583c-.28-.312-.624-.472-1.008-.472-.647,0-1.151.56-1.151,1.279,0,.728.504,1.279,1.151,1.279.384,0,.728-.16,1.008-.463l.56.575c-.399.432-.976.68-1.6.68-1.143,0-2.022-.903-2.022-2.071Z"/>
  </g>
  <path class="uuid-ab8d8c14-9e62-4daf-84ff-37821200d62e" d="m271.799,85.151h.959v5.597h-.959v-5.597Z"/>
  <rect class="uuid-2f5512fe-e0e8-46f2-9c8e-cf49d867b1e6" x="230.797" y="103.781" width="133.681" height="39.905"/>
  <g>
    <path class="uuid-ab8d8c14-9e62-4daf-84ff-37821200d62e" d="m265.278,125.484h1.759v-4.957h-1.759v-1.02h4.717v1.02h-1.759v4.957h1.759v1.02h-4.717v-1.02Z"/>
    <path class="uuid-ab8d8c14-9e62-4daf-84ff-37821200d62e" d="m271.448,121.496h1.129v.75c.38-.549.91-.83,1.539-.83,1.029,0,1.749.73,1.749,1.789v3.298h-1.139v-2.979c0-.729-.43-1.199-1.1-1.199-.43,0-.79.19-1.049.55v3.628h-1.129v-5.007Z"/>
    <path class="uuid-ab8d8c14-9e62-4daf-84ff-37821200d62e" d="m277.288,125.884l.55-.75c.69.45,1.189.589,1.749.589.729,0,1.2-.26,1.2-.649,0-1.08-3.309-.13-3.309-2.119,0-.959.84-1.549,2.079-1.549.77,0,1.499.2,2.169.649l-.55.74c-.54-.37-1.1-.51-1.649-.51-.649,0-1.039.22-1.039.58,0,1.06,3.348.1,3.348,2.129,0,.939-.97,1.609-2.239,1.609-.93,0-1.749-.24-2.309-.72Z"/>
    <path class="uuid-ab8d8c14-9e62-4daf-84ff-37821200d62e" d="m283.167,124.005c0-1.469,1.069-2.589,2.479-2.589,1.459,0,2.509,1.09,2.509,2.589v.27h-3.878c.11.81.74,1.399,1.549,1.399.52,0,.979-.21,1.279-.57l.75.67c-.58.58-1.259.83-2.089.83-1.459,0-2.599-1.129-2.599-2.599Zm3.908-.44c-.13-.729-.68-1.229-1.409-1.229-.7,0-1.229.489-1.379,1.229h2.789Z"/>
    <path class="uuid-ab8d8c14-9e62-4daf-84ff-37821200d62e" d="m289.407,125.614h1.239v-3.218h-1.239v-.899h2.369v1.189c.33-.83.93-1.27,1.679-1.27.31,0,.479.04.77.15v1.03c-.29-.12-.629-.18-.939-.18-.65,0-1.219.33-1.509.899v2.299h1.319v.89h-3.688v-.89Z"/>
    <path class="uuid-ab8d8c14-9e62-4daf-84ff-37821200d62e" d="m296.606,124.974v-2.579h-1.599v-.899h1.599v-1.379l1.129-.24v1.619h2.12v.899h-2.12v2.369c0,.63.29.87.93.87.34,0,.7-.05,1.2-.22v.959c-.42.14-.92.23-1.35.23-1.25,0-1.909-.56-1.909-1.629Z"/>
    <path class="uuid-ab8d8c14-9e62-4daf-84ff-37821200d62e" d="m307.147,121.496h.97v.43c.239-.34.52-.5.879-.5.43,0,.78.22.97.6.27-.41.609-.6,1.06-.6.659,0,1.119.53,1.119,1.299v3.778h-.959v-3.478c0-.47-.21-.77-.58-.77-.18,0-.34.06-.489.27.02.08.02.16.02.25v3.728h-.959v-3.478c0-.47-.221-.77-.59-.77-.17,0-.32.05-.47.24v4.008h-.97v-5.007Z"/>
    <path class="uuid-ab8d8c14-9e62-4daf-84ff-37821200d62e" d="m313.127,124.015c0-1.479,1.08-2.599,2.509-2.599s2.509,1.12,2.509,2.599c0,1.469-1.079,2.589-2.509,2.589s-2.509-1.12-2.509-2.589Zm3.918,0c0-.939-.6-1.629-1.409-1.629s-1.409.689-1.409,1.629.6,1.619,1.409,1.619,1.409-.68,1.409-1.619Z"/>
    <path class="uuid-ab8d8c14-9e62-4daf-84ff-37821200d62e" d="m319.077,124.005c0-1.449,1.01-2.579,2.289-2.579.54,0,1.01.22,1.369.609v-2.708l1.13-.189v7.366h-1.1v-.58c-.35.42-.85.649-1.419.649-1.27,0-2.27-1.119-2.27-2.568Zm3.658,1.139v-2.279c-.27-.31-.68-.51-1.119-.51-.84,0-1.419.69-1.419,1.649s.579,1.639,1.419,1.639c.449,0,.85-.18,1.119-.5Z"/>
    <path class="uuid-ab8d8c14-9e62-4daf-84ff-37821200d62e" d="m325.167,124.005c0-1.469,1.07-2.589,2.479-2.589,1.459,0,2.508,1.09,2.508,2.589v.27h-3.878c.11.81.74,1.399,1.55,1.399.52,0,.979-.21,1.279-.57l.749.67c-.579.58-1.259.83-2.089.83-1.459,0-2.599-1.129-2.599-2.599Zm3.908-.44c-.13-.729-.68-1.229-1.409-1.229-.699,0-1.229.489-1.379,1.229h2.788Z"/>
  </g>
  <rect class="uuid-a03b05eb-8091-4581-94d2-50aabbf4c80f" x="434.146" y="20.09" width="133.681" height="39.905"/>
  <path class="uuid-ab8d8c14-9e62-4daf-84ff-37821200d62e" d="m500.675,42.623c-.76-.07-1.489-.35-2.139-.819l.55-.83c.569.41,1.09.629,1.589.7v-1.969c-1.489-.35-2.068-.949-2.068-1.849,0-1.059.8-1.779,2.068-1.859v-.85h.65v.87c.709.08,1.389.36,1.929.79l-.57.8c-.43-.34-.889-.55-1.358-.64v1.849c1.488.379,2.108.909,2.108,1.889,0,1.069-.84,1.819-2.108,1.919v.859h-.65v-.859Zm0-3.938v-1.759c-.629.05-1.029.38-1.029.85,0,.41.24.68,1.029.909Zm.65,1.149v1.859c.619-.08,1.029-.419,1.029-.899,0-.47-.29-.75-1.029-.959Z"/>
  <g>
    <line class="uuid-e49775aa-757e-462b-a9f2-8dc2b5dca261" x1="161.13" y1="37.803" x2="225.415" y2="37.803"/>
    <polygon class="uuid-ab8d8c14-9e62-4daf-84ff-37821200d62e" points="224.321 41.542 230.797 37.803 224.321 34.063 224.321 41.542"/>
  </g>
  <g>
    <line class="uuid-e49775aa-757e-462b-a9f2-8dc2b5dca261" x1="277.928" y1="59.995" x2="277.928" y2="98.399"/>
    <polygon class="uuid-ab8d8c14-9e62-4daf-84ff-37821200d62e" points="274.188 97.304 277.928 103.781 281.668 97.304 274.188 97.304"/>
  </g>
  <g>
    <line class="uuid-e49775aa-757e-462b-a9f2-8dc2b5dca261" x1="317.348" y1="65.377" x2="317.348" y2="103.781"/>
    <polygon class="uuid-ab8d8c14-9e62-4daf-84ff-37821200d62e" points="313.608 66.471 317.348 59.995 321.087 66.471 313.608 66.471"/>
  </g>
  <g>
    <line class="uuid-e49775aa-757e-462b-a9f2-8dc2b5dca261" x1="364.479" y1="37.803" x2="428.764" y2="37.803"/>
    <polygon class="uuid-ab8d8c14-9e62-4daf-84ff-37821200d62e" points="427.669 41.542 434.146 37.803 427.669 34.063 427.669 41.542"/>
  </g>
</svg>